<?xml version="1.0" encoding="utf-8"?>
<!-- Generator: Adobe Illustrator 24.0.3, SVG Export Plug-In . SVG Version: 6.00 Build 0)  -->
<svg version="1.1" id="Layer_1" xmlns="http://www.w3.org/2000/svg" xmlns:xlink="http://www.w3.org/1999/xlink" x="0px" y="0px"
	 viewBox="0 0 170 40" style="enable-background:new 0 0 170 40;" xml:space="preserve">
<style type="text/css">
	.st0{fill:#FFFFFF;}
	.st1{fill-rule:evenodd;clip-rule:evenodd;fill:#FFFFFF;}
</style>
<path class="st0" d="M53.8,38.6c0,0.7-0.4,1-1.1,1c-0.6,0-0.9-0.3-1-0.8l-1.4-5.7c-0.1,0-0.2,0-0.2,0H39.2c-0.2,0-0.4,0-0.5-0.1
	L34,39.2c-0.2,0.3-0.5,0.4-0.8,0.4s-0.6-0.1-0.8-0.3C32.1,39,32,38.8,32,38.5c0-0.2,0.1-0.5,0.2-0.7l14.9-19.4
	c0.3-0.4,0.6-0.6,1-0.6c0.6,0,1,0.4,1.1,1l4.5,19.4C53.8,38.4,53.8,38.4,53.8,38.6z M49.8,30.9l-2.2-9.4l-7.2,9.4H49.8z M80.1,19
	v0.1v0.1l-0.9,19.4c0,0.7-0.4,1-1.1,1c-0.8,0-1.1-0.4-1.1-1.1v-0.1l0.7-15.8l-8.3,12c-0.3,0.4-0.6,0.6-1,0.6c-0.6,0-1-0.4-1.1-1.1
	l-1.9-11.6l-8,16.5c-0.2,0.4-0.5,0.6-1,0.6c-0.3,0-0.6-0.1-0.8-0.3s-0.4-0.4-0.4-0.8c0-0.2,0-0.3,0.1-0.5l9.5-19.4
	c0.3-0.5,0.6-0.8,1-0.8c0.6,0,1,0.4,1.1,1.1l2,12.4L78,18.4c0.3-0.4,0.6-0.6,1-0.6C79.7,17.8,80.1,18.2,80.1,19z M105.4,26.2
	c0,3.4-1.4,6.5-4.4,9.3c-2.9,2.7-6,4.1-9.5,4.1c-2.5,0-4.5-0.8-6.1-2.3c-1.6-1.6-2.4-3.6-2.4-6c0-3.4,1.4-6.5,4.3-9.3
	c2.9-2.7,6-4.1,9.5-4.1c2.5,0,4.5,0.8,6.1,2.3C104.6,21.7,105.4,23.7,105.4,26.2z M103.2,26.2c0-1.9-0.6-3.4-1.8-4.5
	c-1.2-1.1-2.8-1.7-4.6-1.7c-2.9,0-5.5,1.2-7.9,3.5c-2.5,2.3-3.7,4.9-3.7,7.7c0,1.9,0.6,3.4,1.8,4.5c1.2,1.1,2.7,1.7,4.6,1.7
	c2.9,0,5.5-1.2,7.9-3.4C102,31.6,103.2,29,103.2,26.2z M119.4,21.1c0,0.7-0.4,1-1.1,1c-0.4,0-0.8-0.4-1.2-1.1
	c-0.4-0.7-1.1-1.1-2-1.1c-1.1,0-2.2,0.4-3.1,1.4s-1.5,1.9-1.5,3c0,0.6,0.2,1.2,0.6,1.6s1,0.6,1.6,0.6c1.5,0,2.8,0.5,3.8,1.4
	s1.5,2.2,1.5,3.7c0,2.1-0.8,3.9-2.6,5.5c-1.7,1.6-3.6,2.4-5.6,2.4c-2.6,0-4.2-1.2-5-3.5c0-0.1-0.1-0.2-0.1-0.4c0-0.7,0.4-1,1.1-1
	c0.4,0,0.6,0.2,0.8,0.4c0.1,0.3,0.3,0.6,0.4,0.9c0.6,0.9,1.4,1.4,2.7,1.4c1.5,0,2.8-0.6,4.1-1.8c1.3-1.2,1.9-2.5,1.9-4
	c0-0.9-0.3-1.6-0.9-2.1s-1.3-0.8-2.2-0.8c-1.3,0-2.3-0.4-3.2-1.2c-0.8-0.8-1.3-1.8-1.3-3.1c0-1.7,0.7-3.2,2.1-4.6c1.4-1.3,3-2,4.7-2
	c2.1,0,3.6,1,4.2,2.9C119.3,20.9,119.4,21,119.4,21.1z"/>
<path class="st0" d="M109.8,40c-2.7,0-4.5-1.3-5.4-3.8c-0.1-0.2-0.1-0.3-0.1-0.5c0-0.9,0.6-1.4,1.5-1.4c0.5,0,0.9,0.2,1.2,0.6
	c0,0,0,0,0,0.1c0.1,0.3,0.3,0.6,0.4,0.9c0.5,0.8,1.2,1.2,2.4,1.2c1.4,0,2.6-0.6,3.8-1.7c1.2-1.1,1.8-2.4,1.8-3.7
	c0-0.8-0.2-1.4-0.8-1.8s-1.2-0.7-2-0.7c-1.4,0-2.5-0.4-3.4-1.3s-1.4-2-1.4-3.4c0-1.8,0.8-3.4,2.2-4.9c1.5-1.4,3.1-2.1,4.9-2.1
	c2.3,0,3.8,1.1,4.6,3.2c0,0.2,0.1,0.3,0.1,0.5c0,0.9-0.6,1.4-1.5,1.4c-0.5,0-1-0.4-1.5-1.3c-0.3-0.6-0.9-0.9-1.6-0.9
	c-1,0-2,0.4-2.9,1.3c-0.9,0.8-1.4,1.8-1.4,2.8c0,0.6,0.2,1,0.5,1.3c0.4,0.3,0.8,0.5,1.4,0.5c1.6,0,3,0.5,4,1.5c1.1,1,1.6,2.4,1.6,4
	c0,2.2-0.9,4.1-2.7,5.8C113.9,39.1,112,40,109.8,40z M105.9,35.1c-0.6,0-0.8,0.3-0.8,0.7c0,0.1,0,0.2,0,0.2l0,0
	c0.7,2.2,2.2,3.2,4.7,3.2c2,0,3.8-0.8,5.4-2.3c1.6-1.6,2.4-3.3,2.4-5.2c0-1.4-0.5-2.5-1.4-3.4s-2.1-1.3-3.5-1.3
	c-0.7,0-1.4-0.2-1.9-0.7c-0.5-0.4-0.8-1.1-0.8-1.8c0-1.2,0.5-2.3,1.6-3.3c1-1,2.2-1.5,3.4-1.5c1,0,1.8,0.4,2.3,1.3s0.8,0.9,0.8,0.9
	c0.6,0,0.8-0.2,0.8-0.7c0-0.1,0-0.2,0-0.3c-0.6-1.8-1.9-2.6-3.9-2.6c-1.6,0-3.1,0.6-4.4,1.9s-2,2.7-2,4.3c0,1.2,0.4,2.1,1.2,2.8
	c0.8,0.8,1.7,1.1,2.9,1.1c1,0,1.8,0.3,2.5,0.9c0.6,0.6,1,1.4,1,2.4c0,1.6-0.7,3-2,4.2c-1.4,1.2-2.8,1.9-4.4,1.9
	c-1.4,0-2.4-0.5-3-1.6l0,0c-0.2-0.3-0.3-0.6-0.4-0.9C106.3,35.2,106.1,35.1,105.9,35.1z M91.6,40c-2.6,0-4.7-0.8-6.4-2.4
	c-1.7-1.6-2.6-3.8-2.6-6.3c0-3.5,1.5-6.7,4.4-9.6c3-2.8,6.2-4.2,9.8-4.2c2.6,0,4.7,0.8,6.4,2.4c1.7,1.6,2.6,3.8,2.6,6.3
	c0,3.6-1.5,6.8-4.5,9.6C98.4,38.6,95.1,40,91.6,40z M96.8,18.2c-3.4,0-6.4,1.3-9.3,4c-2.8,2.7-4.2,5.7-4.2,9.1
	c0,2.4,0.8,4.3,2.3,5.7c1.6,1.5,3.5,2.2,5.9,2.2c3.4,0,6.5-1.4,9.2-4c2.8-2.7,4.2-5.7,4.2-9.1c0-2.4-0.8-4.3-2.3-5.7
	C101.2,19,99.2,18.2,96.8,18.2z M78.1,40c-0.5,0-0.8-0.1-1.1-0.4c-0.2-0.2-0.4-0.6-0.4-1.1l0,0L77.3,24l-7.6,10.9
	c-0.4,0.6-0.8,0.8-1.3,0.8c-0.6,0-1.3-0.2-1.5-1.4l-1.7-10.5l-7.5,15.4C57.4,39.7,57,40,56.4,40c-0.4,0-0.7-0.1-1-0.4l0,0
	c-0.3-0.3-0.5-0.6-0.5-1c0-0.2,0.1-0.4,0.1-0.6l0,0l9.5-19.4c0.3-0.6,0.8-1,1.4-1c0.8,0,1.4,0.5,1.5,1.4l1.8,11.4l8.4-12.1
	c0.4-0.5,0.8-0.8,1.3-0.8c1,0,1.5,0.6,1.5,1.5v0.1l0,0l0,0v0.1l-0.9,19.4C79.5,39.5,79,40,78.1,40z M77.8,22.3L77.8,22.3
	c0.3,0,0.4,0.2,0.3,0.4l-0.7,15.8l0,0c0,0.2,0,0.4,0.2,0.5c0.1,0.1,0.3,0.2,0.6,0.2c0.5,0,0.7-0.2,0.7-0.7l0.9-19.4c0,0,0-0.1,0-0.2
	l0,0l0,0l0,0c0-0.5-0.2-0.7-0.8-0.7c-0.2,0-0.4,0.2-0.7,0.5l-8.9,12.8c-0.1,0.1-0.2,0.2-0.4,0.2c-0.2,0-0.3-0.2-0.3-0.3l-2-12.4
	c-0.1-0.7-0.5-0.8-0.8-0.8c-0.2,0-0.4,0-0.7,0.6l-9.5,19.4c0,0.2-0.1,0.2-0.1,0.4s0.1,0.3,0.2,0.5c0.2,0.2,0.4,0.2,0.6,0.2
	c0.3,0,0.5-0.1,0.6-0.4l8.1-16.5c0.1-0.2,0.2-0.2,0.4-0.2c0.2,0,0.3,0.2,0.3,0.3L67.7,34c0.1,0.8,0.4,0.8,0.8,0.8
	c0.2,0,0.4,0,0.7-0.5l8.3-12C77.5,22.3,77.6,22.3,77.8,22.3z M80.5,19.2L80.5,19.2L80.5,19.2z M52.6,40c-0.8,0-1.2-0.4-1.4-1.2
	L50,33.5H39.2c-0.1,0-0.2,0-0.3,0l-4.6,6C34,39.8,33.6,40,33.1,40c-0.4,0-0.7-0.2-1-0.4c-0.3-0.3-0.5-0.6-0.5-1
	c0-0.3,0.1-0.6,0.3-0.9l14.9-19.4c0.4-0.5,0.8-0.8,1.3-0.8s1.2,0.2,1.5,1.4l4.5,19.4l0,0l0,0c0,0.1,0,0.2,0,0.3
	C54.2,39.4,53.6,40,52.6,40z M38.8,32.6L38.8,32.6c0.2,0,0.4,0,0.5,0h11.1c0.2,0,0.3,0.1,0.4,0.3l1.3,5.7c0.1,0.4,0.3,0.6,0.7,0.6
	c0.6,0,0.8-0.3,0.8-0.7c0,0,0-0.1,0-0.2l0,0L48.9,19c-0.2-0.7-0.5-0.8-0.8-0.8c-0.2,0-0.4,0.2-0.7,0.4L32.6,38
	c-0.1,0.2-0.2,0.3-0.2,0.4c0,0.2,0.1,0.3,0.2,0.5c0.2,0.2,0.3,0.2,0.5,0.2s0.4-0.1,0.6-0.3l4.7-6.1C38.5,32.7,38.6,32.6,38.8,32.6z
	 M91.6,37.8c-2,0-3.6-0.6-4.8-1.8c-1.3-1.2-2-2.8-2-4.7c0-3,1.3-5.7,3.8-8c2.5-2.4,5.2-3.6,8.2-3.6c2,0,3.6,0.6,4.9,1.8
	s1.9,2.8,1.9,4.7c0,3-1.3,5.7-3.8,8.1C97.3,36.6,94.5,37.8,91.6,37.8z M96.8,20.4c-2.8,0-5.3,1.1-7.7,3.4c-2.4,2.2-3.6,4.7-3.6,7.5
	c0,1.8,0.6,3.2,1.7,4.2s2.6,1.6,4.3,1.6c2.8,0,5.3-1.1,7.7-3.4c2.4-2.2,3.6-4.8,3.6-7.5c0-1.8-0.6-3.2-1.7-4.2
	C100.1,21,98.6,20.4,96.8,20.4z M49.8,31.3h-9.4c-0.2,0-0.3-0.1-0.4-0.2c-0.1-0.1,0-0.3,0-0.4l7.2-9.4c0.1-0.1,0.2-0.2,0.4-0.1
	c0.2,0,0.2,0.2,0.3,0.3l2.2,9.4c0,0.1,0,0.2-0.1,0.3C50,31.2,49.9,31.3,49.8,31.3z M41.1,30.5h8.1l-1.9-8.1L41.1,30.5z"/>
<path class="st0" d="M32.9,1.3C29.5-0.9,24.7-0.2,22,2.9c-2.7,3.1-2.1,7.5,1.2,9.7c3.3,2.2,8.2,1.6,10.9-1.6
	C36.8,8,36.2,3.6,32.9,1.3z M31.2,0.8c0.5,0.2,1,0.4,1.5,0.7c0.5,0.4,0.9,0.8,1.3,1.2v0.2c-0.8-0.8-2-1.6-3-2
	C31.1,0.9,31.2,0.8,31.2,0.8z M29,1.4c0.6-0.2,1.2-0.3,1.8-0.4c1,0.4,2.5,1.5,3.2,2.1c0,0.7,0,1.1,0,1.7c-0.8,0.2-1.4,0.3-2.3,0.5
	c-0.9-0.7-1.6-1.2-2.7-1.8C29,2.9,29,2.4,29,1.4z M28.7,1.3c0,0.8,0,1.4,0,2.2c-1.2,0.4-1.8,0.9-2.6,1.5c-1-0.3-1.7-0.4-2.8-0.5
	c0-0.7,0-1.2,0-1.9c1.1-0.8,2-1.2,3.2-1.6C27.5,1,27.8,1.1,28.7,1.3z M26.6,0.5c0,0.1-0.1,0.2-0.1,0.3c-1.3,0.3-2.3,0.9-3.3,1.7
	c-0.2,0.1-0.5,0.1-0.5,0.1C23.7,1.5,25.1,0.8,26.6,0.5z M22,11.1c-1.2-1.4-1.6-3.2-1.3-5c0,0,0.4,0.3,0.7,0.6c0,1,0.4,2.3,0.8,3.2
	C22.1,10.3,22,10.7,22,11.1z M22.5,9.8c-0.4-0.7-0.8-2.2-0.9-3.1c0.6-0.8,0.5-0.8,1.6-1.9c0.9,0.1,1.9,0.3,2.8,0.5
	c0.1,1.1,0.3,1.8,0.7,2.8c-0.6,0.8-1.2,1.5-1.8,2.3C24.5,10.2,23.2,10,22.5,9.8z M24.8,13.1c0.4,0,1-0.3,1.5-0.6
	c1.1,0.2,2.3,0.2,3.4,0c0.3,0.2,0.6,0.4,0.9,0.6C28.7,13.8,26.7,13.8,24.8,13.1z M29.7,12.2c-1.1,0.3-2.4,0.2-3.3,0.1
	c-0.4-0.5-1-1.4-1.2-1.8C25.7,9.6,26.3,9,27,8.2c1.1,0.1,1.9,0.1,3.2,0c0.5,0.7,0.9,1.5,1.3,2.2C30.9,11.2,30.4,11.6,29.7,12.2z
	 M31.7,10.3c-0.5-0.9-0.8-1.6-1.3-2.2c0.4-0.5,0.9-1.4,1.3-2.5c0.8-0.2,1.5-0.3,2.3-0.5c0.6,0.7,0.8,1.1,1.1,1.8
	c-0.1,1.1-0.4,2.1-1,3C33.4,10.2,32.5,10.3,31.7,10.3z M34.3,9.9c0.6-0.8,1-2,1-3c0.1,0,0.2,0,0.2,0c-0.1,1.3-0.5,2.4-1.2,3.5
	C34.3,10.4,34.3,10.1,34.3,9.9z"/>
<path class="st1" d="M3.4,4.1c9.7,4.1,18.2,8.8,23.3,19.1c10.7-12.3,20-20,27.4-20.8c1.2-0.8,2.6-1.5,3.9-2.2
	c-7.8-1.8-18.4,6.3-30.8,20.6c-5-10.3-13.6-15-23.3-19.1L0.6,4c0.5,0.3,1,0.6,1.6,1L3.4,4.1z"/>
<path class="st1" d="M3.3,5.4L0,7.6C12.3,14.9,20.8,25.1,23.4,40l6.9-0.6c4.2-16.2,13-28.3,27.2-35.5c-7.7-1.8-18.4,6.2-30.8,20.6
	C21.6,14.1,13.1,9.4,3.3,5.4z"/>
</svg>
